<svg version="1.2" xmlns="http://www.w3.org/2000/svg" viewBox="0 0 153 18" width="153" height="18"><defs><clipPath clipPathUnits="userSpaceOnUse" id="cp1"><path d="m-644-3532h1440v6278h-1440z"/></clipPath></defs><style>.a{fill:#ffc400}</style><g clip-path="url(#cp1)"><path class="a" d="m0.1 0.9q1.4-0.1 2.8-0.1c7.7 0 13.7 3.2 19.4 6.4 5.5 2.9 10.7 5.8 17.2 5.8 6.6 0 11.7-2.9 17.2-5.8 5.7-3.2 11.7-6.4 19.4-6.4 7.8 0 13.7 3.2 19.5 6.4 5.4 2.9 10.6 5.8 17.2 5.8 6.5 0 11.7-2.9 17.1-5.8 5.8-3.2 11.7-6.4 19.5-6.4q1.4 0 2.8 0.1l-0.5 4.7q-1.2-0.1-2.3-0.1c-6.6 0-11.7 2.8-17.2 5.8-5.8 3.1-11.7 6.4-19.4 6.4-7.8 0-13.7-3.3-19.5-6.4-5.4-3-10.6-5.8-17.2-5.8-6.5 0-11.7 2.8-17.2 5.8-5.7 3.1-11.6 6.4-19.4 6.4-7.7 0-13.7-3.3-19.4-6.4-5.5-3-10.7-5.8-17.2-5.8q-1.2 0-2.3 0.1z"/></g></svg>