<?xml version="1.0" standalone="no"?>
<!DOCTYPE svg PUBLIC "-//W3C//DTD SVG 20010904//EN"
 "http://www.w3.org/TR/2001/REC-SVG-20010904/DTD/svg10.dtd">
<svg version="1.0" xmlns="http://www.w3.org/2000/svg"
 width="281.000000pt" height="282.000000pt" viewBox="0 0 281.000000 282.000000"
 preserveAspectRatio="xMidYMid meet">

<g transform="translate(0.000000,282.000000) scale(0.100000,-0.100000)"
fill="#000000" stroke="none">
<path d="M1447 2373 c-10 -9 -9 -23 1 -23 5 0 17 7 28 15 19 14 19 14 -2 15
-11 0 -24 -3 -27 -7z"/>
<path d="M1780 2345 c-11 -13 -10 -14 4 -9 9 3 16 10 16 15 0 13 -6 11 -20 -6z"/>
<path d="M890 2300 c0 -5 7 -10 15 -10 8 0 15 5 15 10 0 6 -7 10 -15 10 -8 0
-15 -4 -15 -10z"/>
<path d="M1520 2299 c0 -6 6 -9 12 -7 17 6 33 -11 42 -45 7 -30 21 -35 30 -10
4 11 -4 25 -26 44 -34 29 -58 37 -58 18z"/>
<path d="M1885 2300 c3 -5 8 -10 11 -10 2 0 4 5 4 10 0 6 -5 10 -11 10 -5 0
-7 -4 -4 -10z"/>
<path d="M1650 2280 c0 -5 5 -10 10 -10 6 0 10 5 10 10 0 6 -4 10 -10 10 -5 0
-10 -4 -10 -10z"/>
<path d="M1760 2281 c0 -10 24 -21 43 -21 7 0 3 7 -7 15 -22 17 -36 19 -36 6z"/>
<path d="M765 2272 c-6 -4 -16 -20 -23 -36 -11 -26 -11 -28 5 -22 12 4 9 -1
-7 -15 -14 -11 -19 -18 -13 -14 7 3 23 0 35 -6 21 -11 22 -11 9 4 -12 15 -10
17 15 17 26 0 26 1 10 13 -18 13 -17 15 7 34 15 11 24 23 20 27 -3 3 -13 1
-20 -6 -11 -9 -16 -9 -22 0 -3 6 -11 8 -16 4z"/>
<path d="M1127 2263 c-4 -3 -7 -11 -7 -17 0 -6 5 -5 12 2 6 6 9 14 7 17 -3 3
-9 2 -12 -2z"/>
<path d="M1810 2240 c0 -5 7 -10 15 -10 8 0 15 5 15 10 0 6 -7 10 -15 10 -8 0
-15 -4 -15 -10z"/>
<path d="M1005 2231 c-3 -5 -2 -12 3 -15 5 -3 9 1 9 9 0 17 -3 19 -12 6z"/>
<path d="M1634 2219 c-19 -22 -19 -22 4 -8 12 8 22 17 22 21 0 12 -6 9 -26
-13z"/>
<path d="M1920 2230 c0 -5 5 -10 10 -10 6 0 10 5 10 10 0 6 -4 10 -10 10 -5 0
-10 -4 -10 -10z"/>
<path d="M1961 2214 c0 -11 3 -14 6 -6 3 7 2 16 -1 19 -3 4 -6 -2 -5 -13z"/>
<path d="M1500 2201 c0 -25 6 -27 13 -6 4 8 2 17 -3 20 -6 4 -10 -3 -10 -14z"/>
<path d="M1535 2200 c3 -5 8 -10 11 -10 2 0 4 5 4 10 0 6 -5 10 -11 10 -5 0
-7 -4 -4 -10z"/>
<path d="M1751 2180 c13 -34 29 -49 29 -25 0 9 3 14 8 11 4 -2 16 2 27 11 19
14 19 15 -5 12 -14 -2 -35 2 -47 9 -21 12 -22 11 -12 -18z"/>
<path d="M1436 2192 c6 -4 18 -21 27 -38 9 -17 24 -37 34 -45 16 -13 17 -13 4
4 -7 9 -11 17 -7 17 3 0 -3 9 -14 20 -11 11 -17 25 -15 33 4 8 -3 13 -17 14
-13 1 -18 -1 -12 -5z"/>
<path d="M1527 2179 c7 -7 15 -10 18 -7 3 3 -2 9 -12 12 -14 6 -15 5 -6 -5z"/>
<path d="M1709 2173 c-13 -16 -12 -17 4 -4 16 13 21 21 13 21 -2 0 -10 -8 -17
-17z"/>
<path d="M710 2162 c0 -4 9 -8 20 -9 11 -1 20 2 20 8 0 5 -9 9 -20 9 -11 0
-20 -4 -20 -8z"/>
<path d="M1116 2130 c4 -19 15 -44 25 -56 11 -11 19 -28 19 -37 0 -9 5 -17 11
-17 5 0 7 5 3 11 -5 8 -1 8 14 0 11 -6 24 -20 27 -32 6 -19 8 -19 25 -4 22 20
79 37 103 29 13 -4 16 -11 11 -27 -6 -19 -5 -20 9 -8 13 10 14 18 6 33 -7 14
-7 23 2 34 9 11 8 14 -3 14 -8 0 -19 -5 -26 -12 -14 -14 -92 18 -92 37 0 7 -8
19 -17 26 -15 12 -16 12 -10 -5 6 -14 4 -16 -5 -9 -8 6 -22 7 -33 2 -19 -7
-19 -8 -1 -8 11 -1 17 -4 13 -7 -12 -12 -46 8 -66 39 l-21 32 6 -35z"/>
<path d="M781 2124 c0 -11 3 -14 6 -6 3 7 2 16 -1 19 -3 4 -6 -2 -5 -13z"/>
<path d="M1900 2121 c0 -6 4 -13 10 -16 6 -3 7 1 4 9 -7 18 -14 21 -14 7z"/>
<path d="M2087 2084 c-4 -4 -3 -12 1 -18 4 -6 7 -14 8 -18 1 -5 3 -10 4 -13 4
-8 7 -24 9 -40 1 -13 4 -13 21 -3 13 8 20 24 20 43 0 22 -3 26 -9 16 -8 -12
-12 -10 -22 12 -12 27 -20 32 -32 21z"/>
<path d="M2002 2068 c-7 -7 -12 -18 -12 -25 0 -19 31 -16 46 5 21 27 16 37 -5
11 -11 -13 -23 -21 -27 -17 -4 4 -1 14 6 23 15 18 9 20 -8 3z"/>
<path d="M1060 2060 c0 -5 7 -10 15 -10 8 0 15 5 15 10 0 6 -7 10 -15 10 -8 0
-15 -4 -15 -10z"/>
<path d="M1917 2059 c7 -7 15 -10 18 -7 3 3 -2 9 -12 12 -14 6 -15 5 -6 -5z"/>
<path d="M816 2047 c3 -10 9 -15 12 -12 3 3 0 11 -7 18 -10 9 -11 8 -5 -6z"/>
<path d="M1126 2046 c5 -13 4 -17 -4 -12 -10 6 -32 -22 -32 -41 0 -9 51 -35
58 -29 2 3 -7 10 -20 17 -33 17 -33 17 -7 38 20 16 22 22 11 33 -11 11 -12 10
-6 -6z"/>
<path d="M1397 2046 c-4 -11 5 -16 34 -21 22 -4 43 -4 46 -1 4 3 -4 6 -17 6
-13 0 -31 7 -40 15 -15 14 -18 14 -23 1z"/>
<path d="M560 2005 c0 -33 2 -35 21 -25 26 15 36 40 18 51 -27 17 -39 10 -39
-26z"/>
<path d="M998 2023 c6 -2 18 -2 25 0 6 3 1 5 -13 5 -14 0 -19 -2 -12 -5z"/>
<path d="M1937 2009 c7 -7 15 -10 18 -7 3 3 -2 9 -12 12 -14 6 -15 5 -6 -5z"/>
<path d="M980 1999 c0 -5 5 -7 10 -4 6 3 10 8 10 11 0 2 -4 4 -10 4 -5 0 -10
-5 -10 -11z"/>
<path d="M1545 2000 c4 -6 1 -17 -5 -25 -14 -17 -7 -31 18 -37 12 -3 24 2 31
14 11 17 10 18 -8 9 -11 -6 -22 -11 -25 -11 -11 0 -6 28 6 32 13 5 2 28 -13
28 -6 0 -7 -5 -4 -10z"/>
<path d="M1508 1993 c7 -3 16 -2 19 1 4 3 -2 6 -13 5 -11 0 -14 -3 -6 -6z"/>
<path d="M1430 1973 c0 -12 5 -25 10 -28 13 -8 13 15 0 35 -8 12 -10 11 -10
-7z"/>
<path d="M2143 1983 c-15 -5 -17 -23 -4 -23 5 0 11 7 15 15 3 8 4 15 3 14 -1
0 -8 -3 -14 -6z"/>
<path d="M1855 1935 c-10 -22 -24 -43 -29 -47 -8 -6 -7 -11 2 -17 8 -4 13 -12
12 -17 -1 -4 7 -11 17 -15 13 -6 10 -8 -13 -8 l-31 -1 2 -55 c1 -42 -3 -59
-17 -72 -19 -17 -24 -43 -8 -43 6 0 10 5 10 10 0 6 7 10 15 10 8 0 15 5 15 10
0 17 28 11 33 -7 4 -14 5 -13 6 4 1 30 21 40 22 11 1 -18 2 -19 6 -5 4 14 8
16 19 6 17 -14 19 2 2 19 -15 15 -6 15 27 0 15 -7 24 -17 21 -25 -3 -7 -1 -13
3 -13 14 0 18 22 11 57 -8 34 -3 38 65 53 l30 7 -28 11 c-16 7 -38 10 -50 8
-12 -1 -17 -1 -10 1 7 2 9 11 7 18 -3 8 6 26 21 41 29 29 26 47 -3 21 -10 -10
-23 -17 -29 -17 -6 0 -13 -6 -16 -12 -3 -10 -12 -9 -40 4 -25 12 -35 22 -31
33 4 8 1 15 -4 15 -6 0 -12 12 -14 28 -3 26 -4 26 -23 -13z m28 -149 c-10 -13
-20 -22 -22 -20 -4 4 29 44 36 44 2 0 -4 -11 -14 -24z m75 -21 c-3 -3 -9 2
-12 12 -6 14 -5 15 5 6 7 -7 10 -15 7 -18z"/>
<path d="M550 1946 c0 -9 5 -16 10 -16 6 0 10 4 10 9 0 6 -4 13 -10 16 -5 3
-10 -1 -10 -9z"/>
<path d="M591 1951 c-15 -9 -23 -69 -10 -76 5 -4 9 1 9 10 0 20 30 32 40 15 5
-7 7 1 6 20 -2 33 -20 46 -45 31z"/>
<path d="M1063 1953 c17 -4 21 -15 18 -41 -2 -9 6 -12 21 -10 13 2 28 -4 35
-12 6 -8 15 -11 20 -7 9 10 -26 39 -38 31 -5 -3 -9 4 -9 16 0 12 -4 19 -9 15
-5 -3 -12 -1 -16 5 -3 5 -14 9 -23 9 -15 -1 -15 -2 1 -6z"/>
<path d="M1930 1930 c-14 -27 -5 -40 28 -39 27 0 27 0 4 10 -18 7 -22 14 -17
29 8 26 -1 26 -15 0z"/>
<path d="M512 1928 c5 -15 28 -23 28 -10 0 5 -7 13 -16 16 -10 4 -14 1 -12 -6z"/>
<path d="M1390 1936 c0 -2 7 -9 15 -16 9 -7 15 -8 15 -2 0 5 -7 12 -15 16 -8
3 -15 4 -15 2z"/>
<path d="M1318 1923 c7 -3 16 -2 19 1 4 3 -2 6 -13 5 -11 0 -14 -3 -6 -6z"/>
<path d="M927 1895 c6 -17 25 -15 31 3 2 7 -5 12 -17 12 -14 0 -19 -5 -14 -15z"/>
<path d="M1695 1890 c-3 -5 -1 -10 4 -10 6 0 11 5 11 10 0 6 -2 10 -4 10 -3 0
-8 -4 -11 -10z"/>
<path d="M2150 1884 c0 -17 22 -14 28 4 2 7 -3 12 -12 12 -9 0 -16 -7 -16 -16z"/>
<path d="M530 1886 c0 -8 31 -36 41 -36 5 0 1 9 -8 20 -16 18 -33 26 -33 16z"/>
<path d="M894 1871 c11 -11 23 -21 28 -21 14 0 -1 19 -25 31 -22 12 -22 12 -3
-10z"/>
<path d="M1610 1886 c0 -2 7 -6 15 -10 8 -3 15 -1 15 4 0 6 -7 10 -15 10 -8 0
-15 -2 -15 -4z"/>
<path d="M1771 1874 c0 -11 3 -14 6 -6 3 7 2 16 -1 19 -3 4 -6 -2 -5 -13z"/>
<path d="M603 1865 c-3 -9 2 -24 11 -33 15 -15 18 -15 26 -2 14 22 12 28 -10
40 -16 9 -22 8 -27 -5z"/>
<path d="M953 1862 c-3 -12 -9 -22 -14 -22 -5 0 -9 -5 -9 -12 0 -6 3 -8 7 -5
3 4 12 -1 20 -11 13 -16 14 -15 8 6 -4 12 -2 22 3 22 11 0 10 25 -1 37 -4 4
-10 -3 -14 -15z"/>
<path d="M1210 1861 c0 -16 28 -20 34 -5 4 9 -1 14 -14 14 -11 0 -20 -4 -20
-9z"/>
<path d="M1505 1861 c-3 -5 -1 -12 4 -15 5 -3 11 1 15 9 6 16 -9 21 -19 6z"/>
<path d="M2225 1861 c3 -5 -4 -12 -15 -16 -20 -6 -28 -35 -10 -35 6 0 13 0 16
-1 4 0 16 13 26 30 l20 31 -22 0 c-11 0 -19 -4 -15 -9z"/>
<path d="M837 1842 c-16 -18 -13 -62 4 -62 12 0 11 17 -1 25 -15 9 -12 25 4
19 17 -7 27 8 17 24 -6 9 -12 8 -24 -6z"/>
<path d="M1277 1843 c3 -10 12 -27 20 -38 11 -17 13 -17 13 -2 0 9 -4 17 -10
17 -5 0 -9 3 -9 8 3 18 -2 32 -11 32 -5 0 -7 -8 -3 -17z"/>
<path d="M735 1840 c-3 -6 1 -7 9 -4 18 7 21 14 7 14 -6 0 -13 -4 -16 -10z"/>
<path d="M1560 1842 c0 -5 6 -17 14 -28 19 -25 31 -12 14 15 -13 21 -28 28
-28 13z"/>
<path d="M1100 1830 c0 -5 5 -10 11 -10 5 0 7 5 4 10 -3 6 -8 10 -11 10 -2 0
-4 -4 -4 -10z"/>
<path d="M1785 1830 c3 -5 8 -10 11 -10 2 0 4 5 4 10 0 6 -5 10 -11 10 -5 0
-7 -4 -4 -10z"/>
<path d="M679 1830 c0 -3 -3 -16 -5 -30 -4 -19 -2 -22 8 -12 6 6 19 12 27 12
12 0 12 -3 3 -12 -7 -7 -12 -17 -12 -22 0 -6 7 -3 14 7 12 15 15 15 26 2 14
-16 30 -20 30 -7 0 5 -17 17 -37 28 -21 10 -41 24 -45 29 -4 6 -8 8 -9 5z"/>
<path d="M1139 1817 c6 -8 8 -17 4 -20 -3 -4 -1 -7 5 -7 18 0 26 22 11 31 -21
13 -33 11 -20 -4z"/>
<path d="M1616 1821 c5 -4 23 -11 39 -15 l30 -6 -25 15 c-27 16 -60 21 -44 6z"/>
<path d="M1336 1804 c-9 -23 -8 -24 24 -24 16 0 52 -9 80 -19 27 -11 47 -14
43 -8 -4 7 2 8 18 2 13 -4 35 -7 49 -7 24 0 24 0 5 -15 -18 -14 -18 -15 -2 -9
10 3 22 6 26 6 4 0 7 10 6 23 -2 19 -7 22 -39 20 -24 -1 -34 2 -29 9 4 8 0 9
-10 5 -49 -20 -52 -20 -39 -6 17 18 15 39 -3 39 -9 0 -15 -9 -15 -25 0 -14 -4
-25 -10 -25 -5 0 -10 10 -10 23 0 17 -6 22 -30 24 -22 2 -29 -1 -24 -10 5 -9
3 -9 -7 1 -17 16 -26 15 -33 -4z m74 -15 c0 -6 -4 -7 -10 -4 -5 3 -10 11 -10
16 0 6 5 7 10 4 6 -3 10 -11 10 -16z"/>
<path d="M1720 1788 c0 -4 7 -8 15 -8 8 0 15 4 15 8 0 5 -7 9 -15 9 -8 0 -15
-4 -15 -9z"/>
<path d="M580 1780 c0 -5 5 -10 11 -10 5 0 7 5 4 10 -3 6 -8 10 -11 10 -2 0
-4 -4 -4 -10z"/>
<path d="M1267 1779 c7 -7 15 -10 18 -7 3 3 -2 9 -12 12 -14 6 -15 5 -6 -5z"/>
<path d="M1640 1775 c11 -13 10 -18 -5 -28 -16 -12 -16 -15 -1 -29 9 -9 16
-20 17 -25 1 -15 93 -76 97 -64 2 6 10 11 17 11 8 0 11 7 8 20 -3 13 -14 20
-29 20 -37 0 -37 17 1 24 41 8 48 17 37 47 l-9 23 -18 -27 c-19 -29 -45 -36
-45 -12 0 8 -8 15 -17 15 -14 0 -15 2 -4 9 15 10 8 15 -33 25 -26 6 -28 5 -16
-9z"/>
<path d="M1165 1770 c3 -5 12 -10 20 -10 8 0 17 5 20 10 4 6 -5 10 -20 10 -15
0 -24 -4 -20 -10z"/>
<path d="M857 1763 c-4 -3 -7 -11 -7 -17 0 -6 5 -5 12 2 6 6 9 14 7 17 -3 3
-9 2 -12 -2z"/>
<path d="M1186 1735 c3 -8 14 -17 25 -20 10 -4 19 -11 19 -16 0 -5 0 -12 0
-16 0 -11 -23 -11 -37 0 -7 5 -13 6 -13 2 0 -15 36 -34 65 -35 22 0 26 3 17
12 -7 7 -12 20 -12 30 0 10 -11 24 -25 30 -14 6 -25 15 -25 20 0 4 -4 8 -10 8
-5 0 -7 -7 -4 -15z"/>
<path d="M547 1726 c-4 -10 -1 -13 9 -9 7 3 14 9 14 14 0 14 -17 10 -23 -5z"/>
<path d="M820 1731 c0 -16 19 -23 43 -15 21 7 21 7 2 15 -28 11 -45 11 -45 0z"/>
<path d="M2188 1718 c20 -20 14 -27 -18 -23 -21 2 -30 -1 -30 -11 0 -14 11
-18 37 -15 8 1 10 -5 6 -15 -3 -9 0 -20 8 -25 22 -14 32 -11 25 8 -4 9 -1 20
6 25 10 6 9 8 -3 8 -12 0 -14 8 -11 30 3 24 1 30 -14 30 -14 0 -15 -3 -6 -12z"/>
<path d="M785 1700 c-3 -5 3 -10 15 -10 12 0 18 5 15 10 -3 6 -10 10 -15 10
-5 0 -12 -4 -15 -10z"/>
<path d="M523 1676 c7 -14 19 -26 27 -26 11 0 11 -3 2 -12 -9 -9 -7 -14 5 -23
13 -10 16 -26 14 -67 -2 -42 1 -57 13 -61 19 -8 33 12 16 23 -10 6 -9 9 1 13
10 4 10 6 2 6 -7 1 -13 6 -13 12 0 7 7 8 18 4 41 -16 46 -17 27 -2 -19 15 -19
16 15 24 l35 9 -32 7 c-26 5 -33 12 -33 29 -1 21 -2 20 -15 -7 -14 -30 -14
-30 -8 15 6 47 13 66 13 36 0 -9 4 -15 10 -11 18 11 -2 33 -38 40 -20 3 -45 8
-54 11 -14 4 -15 2 -5 -20z"/>
<path d="M1000 1690 c0 -6 7 -10 15 -10 8 0 15 2 15 4 0 2 -7 6 -15 10 -8 3
-15 1 -15 -4z"/>
<path d="M1594 1656 c11 -25 26 -43 33 -41 6 2 14 -4 16 -13 4 -16 5 -16 6 0
0 9 -6 24 -15 32 -8 9 -11 16 -5 16 16 0 2 27 -17 34 -9 3 -22 8 -28 11 -6 3
-2 -14 10 -39z"/>
<path d="M489 1685 c-1 -5 -2 -34 -3 -62 -1 -49 1 -53 27 -62 15 -6 27 -15 27
-20 0 -6 5 -11 12 -11 6 0 9 3 6 6 -4 3 -3 18 2 34 7 24 4 29 -16 39 -13 6
-24 17 -24 25 0 10 -6 13 -17 9 -15 -6 -16 -4 -6 8 8 9 9 20 3 29 -6 8 -10 11
-11 5z"/>
<path d="M903 1679 c11 -7 23 -7 28 -2 5 5 -3 9 -19 11 -24 1 -25 0 -9 -9z"/>
<path d="M685 1659 c-4 -6 -5 -12 -2 -15 2 -3 7 2 10 11 7 17 1 20 -8 4z"/>
<path d="M1025 1650 c-3 -5 -1 -10 4 -10 6 0 11 5 11 10 0 6 -2 10 -4 10 -3 0
-8 -4 -11 -10z"/>
<path d="M1274 1641 c4 -5 -2 -7 -11 -5 -10 2 -36 -5 -58 -16 -34 -17 -36 -20
-12 -16 18 2 27 -1 27 -10 0 -8 -8 -14 -17 -14 -17 -1 -17 -1 -1 -14 10 -7 19
-29 20 -50 2 -23 8 -36 17 -36 8 0 23 -7 33 -17 16 -14 18 -14 18 0 0 29 -13
48 -36 58 -27 10 -34 49 -9 49 8 0 15 4 15 8 0 12 46 32 73 32 19 0 18 3 -11
20 -34 21 -57 26 -48 11z"/>
<path d="M1910 1640 c-12 -8 -9 -10 13 -10 15 0 27 5 27 10 0 13 -20 13 -40 0z"/>
<path d="M2075 1640 c-8 -13 -1 -24 14 -19 6 3 7 10 2 18 -6 10 -10 10 -16 1z"/>
<path d="M1060 1629 c0 -5 -4 -7 -10 -4 -5 3 -10 1 -10 -4 0 -6 7 -11 15 -11
8 0 15 7 15 15 0 8 -2 15 -5 15 -3 0 -5 -5 -5 -11z"/>
<path d="M1937 1613 c-4 -3 -7 -11 -7 -17 0 -6 5 -5 12 2 6 6 9 14 7 17 -3 3
-9 2 -12 -2z"/>
<path d="M1010 1587 c0 -13 54 -77 64 -77 14 0 4 26 -14 38 -11 7 -20 18 -20
26 0 8 -7 16 -15 20 -8 3 -15 0 -15 -7z"/>
<path d="M2002 1575 c3 -27 13 -33 21 -12 2 6 -2 18 -9 25 -11 10 -13 8 -12
-13z"/>
<path d="M2153 1584 c0 -8 6 -14 14 -14 7 0 13 4 13 9 0 5 -6 11 -13 14 -8 3
-14 -1 -14 -9z"/>
<path d="M1472 1580 c2 -9 -5 -15 -20 -16 -25 -1 -44 -14 -21 -14 11 0 11 -2
-1 -10 -12 -8 -11 -10 6 -10 12 0 25 -7 28 -16 3 -8 2 -13 -3 -10 -5 3 -14 -1
-21 -9 -6 -7 -18 -11 -25 -9 -25 10 -9 -31 17 -44 41 -19 59 -6 55 39 -2 22 0
39 6 39 11 0 0 50 -14 65 -7 7 -9 5 -7 -5z m-7 -100 c3 -5 -1 -10 -9 -10 -9 0
-16 5 -16 10 0 6 4 10 9 10 6 0 13 -4 16 -10z"/>
<path d="M920 1565 c0 -8 4 -15 10 -15 5 0 7 7 4 15 -4 8 -8 15 -10 15 -2 0
-4 -7 -4 -15z"/>
<path d="M1736 1559 c-15 -14 -16 -19 -5 -19 8 0 20 9 27 20 15 25 3 25 -22
-1z"/>
<path d="M1905 1560 c-3 -5 -2 -10 4 -10 5 0 13 5 16 10 3 6 2 10 -4 10 -5 0
-13 -4 -16 -10z"/>
<path d="M2053 1553 c9 -2 23 -2 30 0 6 3 -1 5 -18 5 -16 0 -22 -2 -12 -5z"/>
<path d="M2145 1548 c-5 -13 -14 -16 -36 -11 -22 4 -29 2 -29 -10 0 -11 7 -14
24 -11 14 2 28 0 31 -6 17 -27 37 2 25 35 -7 18 -9 18 -15 3z"/>
<path d="M1650 1540 c0 -11 39 -20 45 -10 3 4 -6 10 -20 12 -14 3 -25 2 -25
-2z"/>
<path d="M1547 1513 c-12 -12 -7 -33 8 -33 16 0 35 -30 35 -57 0 -27 -18 -51
-27 -37 -12 17 -52 27 -115 29 -49 1 -60 5 -78 27 -24 32 -25 35 -2 41 12 3
13 5 2 6 -8 0 -21 -3 -28 -8 -11 -7 -11 -12 -1 -28 7 -13 9 -28 4 -39 -7 -16
-9 -14 -14 14 -6 34 -28 45 -24 11 2 -10 -2 -19 -8 -19 -8 0 -8 -4 0 -13 6 -8
8 -17 4 -20 -3 -4 -1 -7 5 -7 6 0 18 -8 27 -17 14 -13 21 -14 35 -5 12 7 29 8
48 2 17 -4 33 -6 36 -3 3 3 12 0 21 -7 8 -7 22 -10 30 -6 9 3 18 -1 22 -10 5
-12 8 -12 20 6 17 24 39 26 51 4 8 -15 10 -15 15 0 3 8 2 18 -3 21 -17 11 -11
23 9 18 10 -3 22 0 25 6 4 6 2 11 -4 11 -6 0 -9 4 -6 9 9 14 -4 41 -20 41 -8
0 -14 5 -14 10 0 18 29 10 44 -12 l16 -22 0 22 c0 12 -6 25 -14 28 -9 3 -12
12 -9 21 6 16 -5 16 -66 -3 -20 -6 -23 -4 -18 9 7 18 5 21 -6 10z m-127 -117
c0 -3 -4 -8 -10 -11 -5 -3 -10 -1 -10 4 0 6 5 11 10 11 6 0 10 -2 10 -4z"/>
<path d="M630 1500 c0 -5 5 -10 11 -10 5 0 7 5 4 10 -3 6 -8 10 -11 10 -2 0
-4 -4 -4 -10z"/>
<path d="M2020 1496 c0 -9 5 -16 10 -16 6 0 10 4 10 9 0 6 -4 13 -10 16 -5 3
-10 -1 -10 -9z"/>
<path d="M1310 1490 c0 -5 5 -10 10 -10 6 0 10 5 10 10 0 6 -4 10 -10 10 -5 0
-10 -4 -10 -10z"/>
<path d="M2120 1490 c0 -5 5 -10 11 -10 5 0 7 5 4 10 -3 6 -8 10 -11 10 -2 0
-4 -4 -4 -10z"/>
<path d="M1880 1463 c0 -25 0 -26 20 -8 11 10 20 22 20 27 0 4 -9 8 -20 8 -15
0 -20 -7 -20 -27z"/>
<path d="M620 1450 c-10 -19 -10 -20 9 -8 22 13 28 28 11 28 -5 0 -14 -9 -20
-20z"/>
<path d="M940 1461 c0 -12 -24 -20 -83 -27 -29 -4 -59 -10 -67 -14 -8 -4 -28
-8 -43 -8 -15 0 -30 -2 -34 -5 -5 -5 22 -39 29 -37 2 1 11 -2 21 -6 14 -5 15
-9 6 -15 -7 -4 -14 -18 -16 -32 -3 -23 -1 -22 39 14 44 42 74 51 64 22 -5 -16
-5 -16 6 -2 15 18 48 21 48 5 0 -12 20 14 20 27 0 5 -12 7 -27 5 -44 -5 -35
15 15 34 42 16 46 16 57 1 11 -14 14 -12 28 16 14 29 14 30 -1 22 -9 -5 -26
-5 -39 0 -13 5 -23 5 -23 0z"/>
<path d="M2059 1468 c-1 -2 -3 -15 -4 -30 -3 -21 0 -26 15 -25 19 1 37 37 18
37 -5 0 -6 5 -3 10 3 6 -1 10 -9 10 -9 0 -17 -1 -17 -2z"/>
<path d="M2122 1409 c6 -16 12 -28 14 -26 5 5 -13 57 -20 57 -3 0 0 -14 6 -31z"/>
<path d="M1256 1421 c-3 -5 1 -14 9 -21 13 -10 15 -9 15 9 0 21 -14 28 -24 12z"/>
<path d="M2163 1391 c7 -29 -17 -58 -36 -43 -14 11 -77 22 -77 13 0 -10 17
-33 24 -32 22 3 28 -2 11 -9 -13 -6 -15 -9 -5 -9 13 -1 13 -2 0 -11 -8 -5 -12
-12 -9 -15 10 -9 39 6 39 20 0 7 20 15 50 19 48 6 50 8 38 29 -7 12 -12 25
-13 29 0 4 -6 13 -14 20 -11 11 -13 9 -8 -11z"/>
<path d="M576 1385 c4 -8 9 -15 13 -16 29 -3 45 -10 53 -21 7 -9 8 -8 4 5 -3
10 -6 25 -6 33 0 9 -11 14 -35 14 -26 0 -33 -3 -29 -15z"/>
<path d="M1826 1374 c-3 -8 -12 -11 -21 -8 -16 6 -20 -11 -9 -40 4 -11 12 -7
35 18 16 19 29 36 29 38 0 11 -30 3 -34 -8z"/>
<path d="M1999 1382 c-1 -7 -2 -18 -3 -24 -1 -7 -10 -21 -20 -30 -21 -20 -30
-23 -21 -8 3 6 -3 10 -14 10 -25 0 -41 -48 -20 -60 11 -7 10 -12 -4 -28 -9
-10 -14 -22 -10 -25 12 -12 22 -7 17 8 -4 10 0 15 15 15 12 0 21 5 21 11 0 16
51 79 60 74 18 -11 17 25 -1 46 -10 12 -20 17 -20 11z"/>
<path d="M695 1350 c3 -5 8 -10 11 -10 2 0 4 5 4 10 0 6 -5 10 -11 10 -5 0 -7
-4 -4 -10z"/>
<path d="M1205 1330 c-3 -5 1 -10 10 -10 9 0 13 5 10 10 -3 6 -8 10 -10 10 -2
0 -7 -4 -10 -10z"/>
<path d="M1390 1331 c-17 -5 -21 -9 -12 -15 7 -4 19 -2 27 4 13 10 15 8 15
-16 1 -25 2 -27 11 -11 11 19 6 48 -8 46 -4 -1 -19 -4 -33 -8z"/>
<path d="M607 1324 c-3 -4 -3 -12 0 -18 4 -6 9 -19 10 -28 3 -19 28 -46 59
-64 10 -6 19 -17 19 -25 0 -8 21 -26 47 -41 55 -33 58 -33 58 -12 0 11 -6 14
-21 9 -16 -5 -20 -3 -17 6 3 8 9 14 15 14 5 0 17 8 27 18 10 9 27 17 39 18 16
1 13 3 -11 10 -18 5 -30 14 -27 19 3 5 -8 2 -24 -8 -17 -9 -31 -23 -31 -29 0
-20 -25 -15 -45 7 -21 23 -13 39 10 20 9 -7 19 -10 23 -6 4 4 -2 14 -12 22
-14 10 -16 14 -5 14 10 1 9 4 -5 15 -12 9 -16 20 -12 31 6 15 4 15 -11 3 -10
-8 -21 -18 -24 -23 -4 -4 -17 -5 -29 -1 -14 4 -18 10 -11 14 8 5 8 12 -2 25
-7 9 -16 14 -20 10z"/>
<path d="M1320 1319 c0 -16 -24 -36 -38 -31 -6 2 -12 -3 -12 -12 0 -20 8 -20
54 -1 39 16 43 24 24 43 -15 15 -28 15 -28 1z"/>
<path d="M970 1309 c0 -5 5 -7 10 -4 6 3 10 8 10 11 0 2 -4 4 -10 4 -5 0 -10
-5 -10 -11z"/>
<path d="M1222 1285 c6 -14 13 -24 14 -22 6 6 -9 47 -17 47 -5 0 -3 -11 3 -25z"/>
<path d="M2175 1300 c-19 -5 -23 -8 -10 -9 14 -1 8 -7 -20 -22 -22 -12 -45
-21 -52 -22 -7 0 -10 -4 -7 -9 3 -4 -1 -15 -10 -23 -15 -16 -31 -21 -23 -7 3
4 -6 8 -20 9 -15 0 -21 -2 -16 -5 6 -4 13 -17 17 -29 6 -19 4 -23 -13 -23 -15
0 -21 -6 -21 -21 0 -11 -4 -17 -10 -14 -5 3 -10 15 -10 25 0 26 -36 45 -55 30
-10 -8 -14 -8 -18 2 -4 9 -6 8 -6 -3 -1 -8 11 -20 27 -25 l27 -11 -35 -16
c-31 -15 -32 -16 -7 -12 27 5 38 -9 15 -18 -7 -3 -1 -6 13 -6 37 -1 84 21 84
39 0 8 6 15 14 15 8 0 19 9 25 20 6 11 17 24 24 28 6 4 12 15 12 22 0 8 6 15
13 15 6 0 32 18 57 40 25 21 43 39 40 38 -3 0 -18 -4 -35 -8z"/>
<path d="M1540 1290 c0 -5 5 -10 11 -10 5 0 7 5 4 10 -3 6 -8 10 -11 10 -2 0
-4 -4 -4 -10z"/>
<path d="M1855 1287 c-10 -8 -15 -19 -11 -25 12 -20 33 -13 38 13 6 28 0 31
-27 12z"/>
<path d="M1772 1276 c2 -11 8 -21 13 -23 15 -4 41 15 31 24 -5 4 -11 2 -13 -5
-4 -10 -9 -8 -19 5 -14 17 -15 17 -12 -1z"/>
<path d="M1160 1261 c0 -10 7 -21 15 -25 16 -6 19 3 9 28 -8 22 -24 20 -24 -3z"/>
<path d="M890 1255 c-7 -9 -8 -15 -2 -15 5 0 12 7 16 15 3 8 4 15 2 15 -2 0
-9 -7 -16 -15z"/>
<path d="M941 1233 c-10 -26 -10 -27 4 -9 8 11 15 23 15 28 0 15 -7 8 -19 -19z"/>
<path d="M1700 1245 c0 -9 6 -12 15 -9 8 4 12 10 9 15 -8 14 -24 10 -24 -6z"/>
<path d="M1260 1240 c0 -5 5 -10 11 -10 5 0 7 5 4 10 -3 6 -8 10 -11 10 -2 0
-4 -4 -4 -10z"/>
<path d="M1290 1238 c0 -6 10 -22 22 -35 26 -28 16 -44 -12 -18 -20 18 -20 18
-4 -29 9 -25 13 -54 9 -64 -5 -11 -9 -13 -12 -4 -3 6 -12 12 -20 12 -12 0 -13
-3 -4 -14 7 -9 8 -17 3 -20 -6 -3 -12 1 -16 9 -9 24 -26 17 -26 -10 0 -21 5
-25 28 -25 15 0 34 -5 42 -10 11 -8 5 -10 -25 -8 -33 3 -42 -1 -50 -19 -14
-33 -33 -36 -51 -8 -13 19 -13 28 -3 47 l12 23 -22 -20 c-18 -15 -24 -16 -30
-6 -6 9 -11 10 -15 2 -4 -6 -15 -11 -24 -10 -11 0 -12 2 -4 6 6 2 9 9 6 14 -3
6 -1 16 5 23 16 20 -14 29 -42 14 l-22 -13 23 -3 c18 -3 21 -7 12 -16 -7 -10
-6 -17 5 -26 8 -7 15 -20 16 -29 0 -11 2 -12 6 -3 4 10 9 10 23 -3 10 -9 26
-18 35 -19 10 -1 23 -13 30 -25 l12 -23 19 20 c13 14 24 18 33 12 25 -15 57 9
68 51 8 31 8 39 -3 39 -8 0 -14 5 -14 10 0 6 9 10 19 10 11 0 23 5 26 11 5 6
13 3 22 -10 8 -12 19 -21 25 -21 7 0 4 6 -6 13 -9 7 -18 22 -19 34 -1 22 -1
22 -19 3 -11 -11 -20 -20 -21 -20 -1 0 -2 15 -2 34 0 31 3 34 28 34 34 -1 42
6 33 29 -6 13 -9 14 -15 4 -6 -9 -10 -7 -14 9 -4 15 -2 20 8 17 9 -4 11 1 7
15 -3 15 -11 19 -29 15 -13 -2 -26 0 -29 4 -8 13 -24 11 -24 -3z"/>
<path d="M1157 1223 c-4 -3 -7 -11 -7 -17 0 -6 5 -5 12 2 6 6 9 14 7 17 -3 3
-9 2 -12 -2z"/>
<path d="M1198 1218 c-8 -20 5 -39 20 -29 9 6 9 11 -1 25 -12 16 -15 16 -19 4z"/>
<path d="M1450 1208 c0 -13 -3 -33 -6 -45 -10 -36 19 -27 37 11 12 26 12 33 2
29 -7 -3 -13 2 -13 11 0 9 -4 16 -10 16 -5 0 -10 -10 -10 -22z"/>
<path d="M1622 1210 c0 -14 2 -19 5 -12 2 6 2 18 0 25 -3 6 -5 1 -5 -13z"/>
<path d="M1865 1220 c-3 -5 -1 -10 4 -10 6 0 11 5 11 10 0 6 -2 10 -4 10 -3 0
-8 -4 -11 -10z"/>
<path d="M1405 1201 c-3 -5 -1 -12 5 -16 5 -3 10 1 10 9 0 18 -6 21 -15 7z"/>
<path d="M1785 1200 c-4 -6 -11 -7 -17 -4 -7 4 -8 2 -4 -4 10 -16 23 -15 30 3
6 17 0 20 -9 5z"/>
<path d="M925 1190 c3 -5 8 -10 11 -10 2 0 4 5 4 10 0 6 -5 10 -11 10 -5 0 -7
-4 -4 -10z"/>
<path d="M1665 1179 c-4 -12 -2 -26 4 -32 8 -8 11 -8 11 2 0 7 4 10 9 7 5 -4
8 2 6 11 -2 10 -4 21 -4 26 -2 15 -20 6 -26 -14z"/>
<path d="M1845 1180 c-3 -5 -1 -10 4 -10 6 0 11 5 11 10 0 6 -2 10 -4 10 -3 0
-8 -4 -11 -10z"/>
<path d="M837 1165 c3 -9 8 -13 11 -11 3 3 11 1 18 -5 9 -8 11 -5 7 10 -3 12
-14 21 -24 21 -12 0 -16 -5 -12 -15z"/>
<path d="M891 1164 c0 -11 3 -14 6 -6 3 7 2 16 -1 19 -3 4 -6 -2 -5 -13z"/>
<path d="M1545 1159 c-11 -5 -25 -21 -31 -34 -11 -22 -8 -26 27 -50 41 -26 48
-48 25 -77 -19 -26 -26 -22 -16 11 7 25 4 32 -24 52 -17 13 -34 23 -38 21 -5
-1 -8 3 -8 8 0 6 -4 10 -10 10 -5 0 -7 -6 -4 -14 4 -9 -5 -20 -24 -30 -16 -8
-32 -23 -36 -33 -5 -16 -4 -16 6 -3 14 16 58 22 58 8 0 -5 11 -6 25 -2 19 5
25 2 25 -10 0 -9 -4 -16 -10 -16 -5 0 -10 -9 -10 -21 0 -15 -5 -19 -19 -14
-11 3 -21 0 -24 -9 -3 -8 -15 -16 -27 -18 -20 -3 -20 -3 2 -35 21 -29 28 -33
73 -33 28 0 45 4 38 8 -16 10 -3 64 17 70 9 3 11 0 5 -14 -13 -32 -11 -49 5
-45 8 2 27 6 41 8 15 3 32 15 37 26 9 19 11 19 11 4 1 -12 5 -15 13 -11 7 5
36 11 66 15 29 4 60 13 68 20 12 10 12 14 -6 26 -12 9 -25 25 -29 36 -7 18 -9
16 -15 -16 -9 -50 -31 -49 -23 1 l6 37 -17 -23 c-16 -21 -20 -22 -31 -8 -9 11
-10 16 -2 16 7 0 5 14 -5 40 -15 38 -15 42 0 53 14 10 11 12 -19 14 -27 2 -33
0 -29 -12 5 -11 2 -14 -12 -9 -11 4 -25 11 -31 17 -9 7 -13 4 -13 -8 0 -14 -3
-15 -15 -5 -19 16 -19 25 1 44 17 18 9 20 -21 5z m-2 -29 c-5 -19 -23 -39 -23
-25 0 9 20 45 24 45 2 0 2 -9 -1 -20z m77 -45 c0 -8 -2 -15 -4 -15 -2 0 -6 7
-10 15 -3 8 -1 15 4 15 6 0 10 -7 10 -15z m8 -71 c18 -8 32 -20 32 -25 0 -6
-4 -7 -10 -4 -5 3 -12 -6 -16 -20 -9 -36 -21 -31 -18 8 2 19 -1 14 -8 -15 -12
-54 -30 -65 -24 -15 2 17 4 44 5 60 1 32 -1 31 39 11z"/>
<path d="M690 1150 c0 -5 7 -10 15 -10 8 0 15 -7 15 -16 0 -8 5 -12 11 -9 7 5
4 14 -7 26 -19 21 -34 25 -34 9z"/>
<path d="M980 1138 c14 -14 28 -23 33 -21 4 2 7 -1 7 -6 0 -19 25 -12 38 10
10 16 16 18 26 10 10 -9 15 -8 19 4 5 12 -3 14 -53 8 -42 -4 -65 -2 -77 7 -10
8 -7 2 7 -12z"/>
<path d="M906 1123 c-4 -5 -14 -23 -21 -40 -18 -43 -45 -45 -40 -3 4 27 1 30
-23 30 -87 -1 -99 -39 -19 -60 28 -8 54 -15 57 -16 3 -1 15 -5 26 -9 12 -4 26
-17 32 -30 7 -15 19 -22 36 -22 30 0 32 4 9 29 -18 20 -10 39 9 20 7 -7 22
-12 34 -12 17 0 21 5 17 19 -3 13 -17 21 -45 25 -40 7 -68 25 -68 46 0 6 5 8
10 5 6 -3 10 1 10 9 0 17 -12 21 -24 9z"/>
<path d="M1435 1120 c3 -5 15 -10 26 -10 10 0 19 5 19 10 0 6 -12 10 -26 10
-14 0 -23 -4 -19 -10z"/>
<path d="M1781 1116 c-8 -9 -24 -16 -37 -16 -15 0 -24 -6 -24 -16 0 -8 -4 -12
-10 -9 -13 8 -13 -5 0 -25 8 -13 10 -13 10 1 0 21 27 32 34 16 5 -9 7 -9 12 1
8 18 24 15 24 -5 0 -13 3 -14 12 -5 7 7 19 12 27 12 11 0 11 -3 -3 -19 -19
-21 -13 -75 8 -68 15 5 14 33 -1 30 -16 -4 -17 14 -2 19 6 2 17 18 25 36 13
31 12 32 -13 32 -14 0 -31 7 -37 16 -11 14 -13 14 -25 0z"/>
<path d="M1268 1113 c6 -2 18 -2 25 0 6 3 1 5 -13 5 -14 0 -19 -2 -12 -5z"/>
<path d="M950 1091 c0 -5 6 -14 14 -20 12 -10 13 -8 9 8 -5 21 -23 30 -23 12z"/>
<path d="M1357 1039 c4 -13 8 -18 11 -10 2 7 -1 18 -6 23 -8 8 -9 4 -5 -13z"/>
<path d="M1180 1020 c0 -5 5 -10 10 -10 6 0 10 5 10 10 0 6 -4 10 -10 10 -5 0
-10 -4 -10 -10z"/>
<path d="M1002 992 c-16 -5 -15 -42 1 -42 8 0 7 -3 -3 -10 -21 -13 -9 -21 55
-35 63 -15 77 -6 40 27 -14 12 -25 29 -25 39 0 16 -43 30 -68 21z"/>
<path d="M1350 990 c0 -6 -11 -21 -25 -34 -22 -20 -24 -28 -15 -50 7 -19 17
-26 35 -26 27 0 35 26 13 48 -6 6 -8 15 -4 19 11 11 36 -27 36 -54 0 -18 6
-23 26 -23 l25 0 -24 33 c-29 38 -43 77 -28 77 6 0 11 5 11 10 0 6 -11 10 -25
10 -14 0 -25 -5 -25 -10z m10 -80 c0 -5 -2 -10 -4 -10 -3 0 -8 5 -11 10 -3 6
-1 10 4 10 6 0 11 -4 11 -10z"/>
<path d="M1150 935 c0 -5 5 -17 10 -25 5 -8 10 -10 10 -5 0 6 -5 17 -10 25 -5
8 -10 11 -10 5z"/>
<path d="M1229 918 c-7 -13 -17 -26 -23 -30 -7 -5 -6 -8 4 -8 20 0 32 10 48
38 10 18 10 22 -3 22 -8 0 -20 -10 -26 -22z"/>
</g>
</svg>
