<svg version="1.2" xmlns="http://www.w3.org/2000/svg" viewBox="0 0 429 28" width="429" height="28"><defs><clipPath clipPathUnits="userSpaceOnUse" id="cp1"><path d="m-26-2842h480v9922h-480z"/></clipPath></defs><style>.a{fill:#ffc400}</style><g clip-path="url(#cp1)"><path class="a" d="m428.1 24.7c-4.6 1.8-9.6 2.7-14.6 2.7-10.5-0.1-18.6-4.6-26.5-9-7.4-4.1-14.5-8-23.4-8.1-8.9-0.1-15.9 3.6-23.3 7.6-7.7 4.2-15.8 8.5-26.3 8.4-10.5-0.1-18.6-4.6-26.5-8.9-7.5-4.2-14.5-8.1-23.4-8.2-8.9-0.1-15.9 3.7-23.3 7.7-7.7 4.1-15.8 8.5-26.3 8.4-10.5-0.2-18.7-4.7-26.5-9-7.5-4.2-14.5-8.1-23.4-8.2-8.9-0.1-15.9 3.7-23.3 7.7-7.8 4.2-15.8 8.5-26.3 8.4-10.6-0.1-18.7-4.6-26.5-9-7.5-4.1-14.6-8-23.5-8.1-8.9-0.1-15.8 3.6-23.2 7.6-7.8 4.2-15.8 8.5-26.3 8.4-5-0.1-10-1.1-14.7-3l2.3-5.9c3.9 1.6 8.1 2.5 12.3 2.6 8.9 0 15.9-3.7 23.3-7.7 7.7-4.2 15.7-8.5 26.3-8.4 10.5 0.1 18.6 4.6 26.5 9 7.4 4.1 14.5 8 23.4 8.1 8.9 0.1 15.9-3.7 23.3-7.6 7.7-4.2 15.8-8.6 26.3-8.4 10.5 0.1 18.6 4.6 26.5 8.9 7.5 4.2 14.5 8.1 23.4 8.2 8.9 0.1 15.9-3.7 23.3-7.7 7.8-4.2 15.8-8.5 26.3-8.4 10.5 0.1 18.7 4.6 26.5 9 7.5 4.1 14.5 8 23.4 8.1 8.9 0.1 15.9-3.6 23.3-7.6 7.8-4.2 15.8-8.5 26.3-8.4 10.6 0.1 18.7 4.6 26.5 9 7.5 4.1 14.6 8 23.5 8.1 4.2 0 8.3-0.8 12.2-2.3z"/></g></svg>