<svg version="1.2" xmlns="http://www.w3.org/2000/svg" viewBox="0 0 55 43" width="55" height="43"><defs><clipPath clipPathUnits="userSpaceOnUse" id="cp1"><path d="m-83-30h1440v6278h-1440z"/></clipPath></defs><style>.a{fill:#0cb}</style><g clip-path="url(#cp1)"><path class="a" d="m40.6 12.4v9.6h-0.9l-0.5-9.3-1.3-0.1v9.3h-1.2l-0.5-9.1h-1.2q-0.2 4.5-0.4 9h-0.7c-0.2-3-0.3-5.9-0.5-9.5-2.2 3.5-1.7 11.9 0.3 14.4 2.1 2.4 2.4 12 0.4 14.2-0.5 0.6-1.2 1.1-2 1.2-3.3 0.1-6.7 0.4-9.9-0.3-1.8-0.7-3-2.3-3.4-4.2 0-4.8-1.1-9.8 2.2-14.5 2.2-3 1.6-6.9-0.5-10.1-2.2-3.4-6.2-3.2-8.1 0.4-1.8 3.7-1.3 8.1 1.2 11.3 2.2 2.7 2.5 12.3 0.3 14.9-0.7 0.9-1.7 1.5-2.8 1.6q-4.2 0.3-8.3-0.4c-1.3-0.5-2.3-1.6-2.6-3-0.1-7.8-0.5-15.7 0.5-23.4 1.7-12.5 12.6-17.6 24.1-12.3 1.3 0.5 2.8 0.5 4.1-0.1 11.5-5.4 22.7 0.5 24.1 12.9 0.8 7.6 1 15.2 1.5 22.8 0.1 0.8-0.2 1.7-0.6 2.5-2.8 3-6.5 2.7-10 2.4-2.6-0.1-4.7-2.1-4.9-4.7-0.6-4.3-0.9-8.3 2-12.4 2.5-3.8 1.3-8.7 0.8-13.1z"/></g></svg>