<svg version="1.2" xmlns="http://www.w3.org/2000/svg" viewBox="0 0 315 18" width="315" height="18"><defs><clipPath clipPathUnits="userSpaceOnUse" id="cp1"><path d="m-562-1599h1440v6278h-1440z"/></clipPath></defs><style>.a{fill:#ffc400}</style><g clip-path="url(#cp1)"><path class="a" d="m314.8 14.9c-3.4 1.4-7.1 2.1-10.8 2.1-7.7 0-13.7-3.2-19.4-6.4-5.5-3-10.6-5.8-17.2-5.8-6.5 0-11.7 2.8-17.2 5.8-5.7 3.2-11.7 6.4-19.4 6.4-7.8 0-13.7-3.2-19.4-6.4-5.5-3-10.7-5.8-17.2-5.8-6.6 0-11.7 2.8-17.2 5.8-5.8 3.2-11.7 6.4-19.4 6.4-7.8 0-13.7-3.2-19.5-6.4-5.4-3-10.6-5.8-17.2-5.8-6.5 0-11.7 2.8-17.2 5.8-5.7 3.2-11.6 6.4-19.4 6.4-7.7 0-13.7-3.2-19.4-6.4-5.5-3-10.7-5.8-17.2-5.8-6.6 0-11.7 2.8-17.2 5.8-5.7 3.2-11.7 6.4-19.4 6.4-3.7 0-7.3-0.7-10.8-2.1l1.7-4.4c2.9 1.2 6 1.8 9.1 1.8 6.5 0 11.7-2.8 17.2-5.8 5.7-3.1 11.6-6.4 19.4-6.4 7.7 0 13.7 3.3 19.4 6.4 5.5 3 10.7 5.8 17.2 5.8 6.6 0 11.7-2.8 17.2-5.8 5.7-3.1 11.7-6.4 19.4-6.4 7.8 0 13.7 3.3 19.5 6.4 5.4 3 10.6 5.8 17.2 5.8 6.5 0 11.7-2.8 17.1-5.8 5.8-3.1 11.7-6.4 19.5-6.4 7.7 0 13.7 3.3 19.4 6.4 5.5 3 10.6 5.8 17.2 5.8 6.5 0 11.7-2.8 17.2-5.8 5.7-3.1 11.7-6.4 19.4-6.4 7.8 0 13.7 3.3 19.5 6.4 5.4 3 10.6 5.8 17.1 5.8 3.1 0 6.2-0.6 9.1-1.8z"/></g></svg>