<svg version="1.2" xmlns="http://www.w3.org/2000/svg" viewBox="0 0 297 24" width="297" height="24"><defs><clipPath clipPathUnits="userSpaceOnUse" id="cp1"><path d="m-85-448h1440v6278h-1440z"/></clipPath></defs><style>.a{fill:#ffc400}</style><g clip-path="url(#cp1)"><path class="a" d="m296.1 7.1c-6.6 1.2-12.3 4.3-18.3 7.6-8 4.4-16.3 8.9-27.1 8.9-10.9 0-19.2-4.5-27.2-8.9-7.6-4.2-14.8-8.1-24-8.1-9.1 0-16.3 3.9-24 8.1-8 4.4-16.3 8.9-27.1 8.9-10.9 0-19.2-4.5-27.2-8.9-7.6-4.2-14.8-8.1-24-8.1-9.1 0-16.4 3.9-24 8.1-8 4.4-16.3 8.9-27.1 8.9-10.9 0-19.2-4.5-27.2-8.9-6-3.3-11.7-6.4-18.3-7.6l1.2-6.4c7.6 1.4 14 4.9 20.2 8.3 7.7 4.1 14.9 8.1 24.1 8.1 9.1 0 16.3-4 24-8.1 8-4.4 16.3-9 27.1-9 10.8 0 19.1 4.6 27.2 9 7.6 4.1 14.8 8.1 24 8.1 9.1 0 16.3-4 24-8.1 8-4.4 16.3-9 27.1-9 10.8 0 19.1 4.6 27.2 9 7.6 4.1 14.8 8.1 24 8.1 9.1 0 16.3-4 24-8.1 6.2-3.4 12.6-6.9 20.2-8.3z"/></g></svg>