<svg version="1.2" xmlns="http://www.w3.org/2000/svg" viewBox="0 0 71 9" width="71" height="9"><defs><clipPath clipPathUnits="userSpaceOnUse" id="cp1"><path d="m-114-1921h1440v6278h-1440z"/></clipPath></defs><style>.a{fill:#ffc400}</style><g clip-path="url(#cp1)"><path class="a" d="m1 1q0.6 0 1.2 0c3.6 0 6.3 1.5 8.9 2.9 2.5 1.4 4.8 2.6 7.8 2.6 3 0 5.3-1.2 7.8-2.6 2.6-1.4 5.3-2.9 8.9-2.9 3.5 0 6.2 1.5 8.8 2.9 2.5 1.4 4.8 2.6 7.8 2.6 3 0 5.4-1.2 7.8-2.6 2.7-1.4 5.4-2.9 8.9-2.9q0.6 0 1.3 0l-0.3 2.2q-0.5-0.1-1-0.1c-3 0-5.3 1.3-7.8 2.7-2.7 1.4-5.4 2.9-8.9 2.9-3.5 0-6.2-1.5-8.8-2.9-2.5-1.4-4.9-2.7-7.8-2.7-3 0-5.4 1.3-7.9 2.7-2.6 1.4-5.3 2.9-8.8 2.9-3.5 0-6.2-1.5-8.9-2.9-2.4-1.4-4.8-2.7-7.8-2.7q-0.5 0-1 0.1z"/></g></svg>