<svg version="1.2" xmlns="http://www.w3.org/2000/svg" viewBox="0 0 17 16" width="17" height="16"><defs><clipPath clipPathUnits="userSpaceOnUse" id="cp1"><path d="m-1050-6093h1440v6278h-1440z"/></clipPath></defs><style>.a{fill:#fff}</style><g clip-path="url(#cp1)"><path class="a" d="m16.4 11.6v2.9c0 0.7-0.6 1.2-1.3 1.2-7.9 0-14.3-6.4-14.3-14.3 0-0.7 0.6-1.3 1.2-1.3h2.9c0.7 0 1.3 0.6 1.3 1.3q0 1.4 0.4 2.8c0.1 0.4 0 0.9-0.3 1.3l-1.3 1.7c0.9 1.9 2.5 3.4 4.4 4.3l1.7-1.3c0.4-0.3 0.8-0.4 1.3-0.3q1.3 0.5 2.7 0.5c0.7 0 1.3 0.5 1.3 1.2z"/></g></svg>