<svg version="1.2" xmlns="http://www.w3.org/2000/svg" viewBox="0 0 14 20" width="14" height="20"><defs><clipPath clipPathUnits="userSpaceOnUse" id="cp1"><path d="m-1050-6037h1440v6278h-1440z"/></clipPath></defs><style>.a{fill:#fff}</style><g clip-path="url(#cp1)"><path fill-rule="evenodd" class="a" d="m13.6 7.3c0 4.3-6.4 12.1-6.4 12.1 0 0-6.4-7.6-6.4-12.1 0-3.5 2.9-6.4 6.4-6.4 3.5 0 6.4 2.9 6.4 6.4zm-4.5-1.9c-0.5-0.6-1.2-0.8-1.9-0.8-0.7 0-1.4 0.2-1.9 0.8-1.1 1-1.1 2.8 0 3.8 0.5 0.5 1.2 0.8 1.9 0.8 0.7 0 1.4-0.3 1.9-0.8 1.1-1 1.1-2.8 0-3.8z"/></g></svg>