<svg version="1.2" xmlns="http://www.w3.org/2000/svg" viewBox="0 0 199 194" width="199" height="194"><defs><clipPath clipPathUnits="userSpaceOnUse" id="cp1"><path d="m-620-1062h1440v6278h-1440z"/></clipPath></defs><style>.a{fill:#ffb023;stroke:#fff}</style><g clip-path="url(#cp1)"><g style="opacity:.1"><path fill-rule="evenodd" class="a" d="m195.2 175.1v12.7c0 1.8-1.4 3.2-3.2 3.2h-184.8c-1.8 0-3.2-1.4-3.2-3.2v-12.7c0-1.8 1.4-3.2 3.2-3.2h17.1l-3.7-7.5c-6.1-2.3-10.2-8.2-10.2-14.8v-7c-4.4-1.5-7.1-6-6.3-10.6 0.8-4.6 4.8-7.9 9.5-7.9h57.3c4.7 0 8.6 3.3 9.4 7.9 0.8 4.6-1.8 9.1-6.2 10.6v7c0 6.6-4.1 12.5-10.2 14.8l-3.8 7.5h55.7l5.3-49.9-8.9 7.4c-3.6 3-8.9 3-12.4-0.1l-21.2-18.6-6-3.6c-5.2-3-7.2-9.4-4.9-14.9v-12.7c0-4.1 2.6-7.7 6.4-9v-13.3h-3.2c-5.3 0-9.5-4.3-9.5-9.6v-19.1c0-5.3 4.2-9.6 9.5-9.6h12.8c5.2 0 9.5 4.3 9.5 9.6v19.1c0 5.3-4.3 9.6-9.5 9.6h-3.2v13.3c3.8 1.3 6.3 4.9 6.4 9v8.6q1.2 1.1 2.1 2.6l3.5 5.8 13 10.4 10.7-13.5q0.6-0.6 1.3-1l8.7-3.4c-10.8-8.7-13.8-23.9-7.1-36l1.7-16.5c-5.2-2.2-8.5-6.4-8.5-11.2 0-6.9 6.8-12.5 15.3-12.7 3.5-6 9.8-9.6 16.6-9.6 6.8 0 13.2 3.6 16.6 9.6 8.5 0.2 15.3 5.8 15.3 12.7 0 4.8-3.3 9-8.5 11.2l1.7 16.5c6.7 12.1 3.8 27.3-7.1 36l8.7 3.4c0.7 0.3 1.2 0.8 1.6 1.5l19.1 35q0 0.1 0 0.1 0 0 0.1 0l2.7 5.5c1.9 3.7 1.4 8.2-1.2 11.4-2.6 3.3-6.8 4.7-10.9 3.8-4-1-7.1-4.3-7.9-8.3l-1.3-6.5-5.3-7.8 4.8 44.8h19.4c1.8 0 3.2 1.4 3.2 3.2zm-121.1-149.8h-3.2c-1.7 0-3.2 1.4-3.2 3.2v19.1c0 1.8 1.5 3.2 3.2 3.2h3.2zm113 108.9l-7.3 1.8 0.8 4.1c0.3 1.6 1.6 2.9 3.2 3.3 1.6 0.4 3.4-0.2 4.4-1.5 1-1.3 1.2-3.1 0.5-4.6zm-25.5-38.5l4.7 17.6 11.2 16.8 6.5-1.7-16.6-30.4zm-33.7 22.1l-5.7 54.2h43.9l-5.7-54.2zm31.3-6.4l-4.7-17.8q-0.2 0-0.4 0.1-1 0.4-2 0.6-0.3 0.1-0.7 0.2-0.9 0.3-1.8 0.5-0.5 0-1 0.1-0.8 0.2-1.7 0.3-0.6 0-1.3 0c-0.4 0-0.9 0.1-1.4 0.1-0.5 0-1-0.1-1.5-0.1q-0.6 0-1.2 0-0.9-0.1-1.7-0.3-0.5 0-1-0.1-0.9-0.2-1.8-0.5-0.4-0.1-0.8-0.2-1-0.2-1.9-0.6-0.2-0.1-0.4-0.1l-4.7 17.8zm-34.2-80.1c1.5 0.4 2.5 1.9 2.4 3.4l-2 19.4h37.6l-1.9-19.4c-0.2-1.6 0.8-3 2.3-3.4 3.7-0.9 6.3-3.4 6.3-5.9 0-3.5-4.4-6.4-9.6-6.4q-0.2 0-0.5 0.1h-0.5c-1.4 0.1-2.6-0.7-3.2-1.9-2-4.7-6.6-7.7-11.7-7.7-5.1 0-9.7 3-11.7 7.7-0.5 1.2-1.8 2-3.2 1.9h-0.5q-0.2-0.1-0.5-0.1c-5.2 0-9.6 2.9-9.6 6.4 0 2.5 2.6 5 6.3 5.9zm11.8 56.5l0.1 0.1c4.7 1.6 9.9 1.6 14.6 0l0.1-0.1c11.2-3.9 17.4-16 14-27.4h-42.7c-0.7 2.1-1 4.3-1 6.4 0 9.5 6 17.9 14.9 21zm-56.3-36.9h3.2c1.7 0 3.2-1.4 3.2-3.2v-19.1c0-1.8-1.5-3.2-3.2-3.2h-3.2zm-6.4 28.7v6.3q0.2-0.1 0.4-0.1 0.4-0.2 0.8-0.3 0.9-0.3 1.9-0.4 0.4-0.1 0.8-0.1 0.9 0 1.7 0c0.2 0.1 0.3 0 0.5 0q0.1 0.1 0.2 0.1 0.1 0 0.1 0v-5.5c0-1.8-1.4-3.2-3.2-3.2-1.8 0-3.2 1.4-3.2 3.2zm5.9 24.6l6-6-2.4-4.2q-0.7-1-1.7-1.7 0 0 0 0-0.8-0.5-1.7-0.8-0.1 0-0.2 0-0.9-0.2-1.7-0.1-0.1 0-0.2 0-0.9 0.1-1.7 0.4 0 0.1-0.1 0.1c-0.9 0.4-1.6 1-2.1 1.8q-0.2 0.3-0.4 0.7 0 0 0 0c-1.4 2.6-0.5 5.8 2.1 7.3zm42.2 8.6l4.5-17.1-6.1 2.5-12.2 15.2c-0.5 0.7-1.3 1.1-2.1 1.2-0.9 0.1-1.7-0.1-2.4-0.7l-13.7-10.9-5.1 5.1 18.8 16.5c1.2 1 3 1 4.2 0zm-51.4 24.1c1.8 0 3.2-1.4 3.2-3.2 0-1.7-1.4-3.1-3.2-3.1h-57.3c-1.8 0-3.2 1.4-3.2 3.1 0 1.8 1.4 3.2 3.2 3.2zm-44.6 22.3h31.8c5.3 0 9.6-4.2 9.6-9.5v-6.4h-51v6.4c0 5.3 4.3 9.5 9.6 9.5zm19.1 6.4v6.4h7.6l3.2-6.4zm-17.2 0l3.2 6.4h7.6v-6.4zm160.5 12.8h-178.4v6.3h178.4z"/></g></g></svg>