<svg version="1.2" xmlns="http://www.w3.org/2000/svg" viewBox="0 0 187 187" width="187" height="187"><defs><clipPath clipPathUnits="userSpaceOnUse" id="cp1"><path d="m-1044-1065h1440v6278h-1440z"/></clipPath></defs><style>.a{fill:#fff}</style><g clip-path="url(#cp1)"><g style="opacity:.1"><path fill-rule="evenodd" class="a" d="m181.2 58.7c-8.4 13.5-24.2 20.6-39.8 17.7v57.6h0.2c12.4 0.5 12.4 18.2 0 18.7h-34c-7.7 0-15.3 1.8-22.1 5.3l-12.5 6.5c-1.3 0.7-3 0.2-3.7-1.1-0.7-1.4-0.1-3 1.2-3.7l12.5-6.5c7.6-3.9 16-6 24.6-6h34c2.1 0 3.9-1.7 3.9-3.9 0-2.1-1.8-3.8-3.9-3.8h-66.6c-1.9 0-3.7-1.1-4.6-2.8-0.8-1.8-0.7-3.8 0.5-5.4l11.4-15.8c0.6-0.8 0.9-1.8 0.7-2.8-0.2-1.4-1.2-2.6-2.6-3-1.3-0.4-2.8 0-3.7 1.1l-21.3 23c-3.1 3.4-6.8 6.2-11 8.3l-12.7 6.4c-3.2 1.6-6.7 2.6-10.2 3.1l-16 1.9v27.7l28.8-4.5c3.2-0.5 6.4-1.6 9.3-3.1l15.6-8.1c1.3-0.7 3-0.1 3.7 1.2 0.7 1.3 0.1 3-1.2 3.7l-15.5 8.1c-3.5 1.8-7.2 3-11.1 3.6l-31.1 4.9c-1 0.1-2-0.2-2.8-0.8-0.8-0.7-1.2-1.7-1.2-2.7v-31.7c0-1.8 1.3-3.3 3-3.5l17.8-2.2c2.9-0.3 5.8-1.2 8.4-2.5l12.8-6.4q1.8-1 3.6-2.1 0-0.1 0-0.2v-41.4c0-1.5 1.2-2.7 2.7-2.7 1.5 0 2.7 1.2 2.7 2.7v36.9q0.2-0.1 0.4-0.3l21.2-23.1c3.3-3.5 8.9-3.9 12.6-0.8 3.8 3.1 4.4 8.6 1.6 12.5l-11.1 15.3h60.2v-59.1q-1.9-0.6-3.7-1.5c-3-1.3-6.4-1.4-9.5 0l-7.8 3.4c-1.3 0.6-2.9 0.3-3.9-0.8-1-1-1.3-2.5-0.7-3.9l3.4-7.9c1.2-3 1.2-6.5-0.2-9.5-1.8-3.8-2.9-7.9-3.4-12.2h-55l-3.2 18q-0.9 4.6-0.9 9.3v10.7c0 1.5-1.2 2.7-2.7 2.7-1.5 0-2.7-1.2-2.7-2.7v-10.7q0-5.2 0.9-10.3l3.1-17c-2.6-0.4-4.4-2.6-4.4-5.1v-13.4c0-2.9 2.3-5.2 5.1-5.2h65c1.7-2.7 3.6-5.3 5.9-7.5 12.8-12.8 32.7-15 47.9-5.3 1.3 0.8 1.7 2.5 0.8 3.8-0.8 1.3-2.5 1.7-3.7 0.8-12.4-7.8-28.5-6.6-39.6 3-11 9.7-14.3 25.5-8.1 38.8 2 4.4 2.1 9.5 0.2 14l-1.5 3.4 3.3-1.5c4.5-1.9 9.6-1.9 14 0.2q2.4 1.1 4.9 1.8 0 0 0.1 0c13.7 3.8 28.2-1.5 36.2-13.2 8-11.7 7.6-27.2-0.9-38.5-0.9-1.2-0.7-2.9 0.5-3.9 1.2-0.9 2.9-0.6 3.8 0.6 9.6 12.6 10.4 29.9 2.1 43.4zm-71.2-21.6c0.1-4.4 1-8.7 2.6-12.8h-62v12.8z"/></g></g></svg>