<svg version="1.2" xmlns="http://www.w3.org/2000/svg" viewBox="0 0 35 29" width="35" height="29"><defs><clipPath clipPathUnits="userSpaceOnUse" id="cp1"><path d="m-708-1502h1440v6278h-1440z"/></clipPath></defs><style>.a{fill:#fff}</style><g clip-path="url(#cp1)"><path class="a" d="m25.8 8.8v6.1h-0.6l-0.3-6h-0.8v5.9h-0.8l-0.3-5.8h-0.8q-0.1 2.9-0.2 5.7h-0.5c-0.1-1.8-0.2-3.7-0.3-6-1.4 2.2-1.1 7.6 0.2 9.2 1.3 1.5 1.5 7.6 0.2 9-0.3 0.4-0.7 0.7-1.2 0.8-2.1 0-4.3 0.2-6.3-0.2-1.1-0.5-1.9-1.5-2.2-2.7 0-3.1-0.7-6.3 1.4-9.2 1.4-1.9 1-4.4-0.3-6.4-1.4-2.2-3.9-2.1-5.1 0.2-1.2 2.3-0.9 5.1 0.7 7.2 1.4 1.7 1.6 7.8 0.2 9.5-0.5 0.5-1.1 0.9-1.8 1q-2.6 0.2-5.3-0.3c-0.8-0.3-1.4-1-1.6-1.9 0-4.9-0.3-10 0.3-14.8 1.1-8 8-11.3 15.3-7.9 0.9 0.4 1.8 0.3 2.7 0 7.2-3.5 14.4 0.3 15.3 8.2 0.5 4.8 0.6 9.6 0.9 14.4 0 0.6-0.1 1.2-0.4 1.6-1.7 2-4.1 1.8-6.3 1.6-1.7-0.1-3-1.4-3.1-3-0.4-2.8-0.6-5.3 1.2-7.9 1.6-2.4 0.9-5.5 0.5-8.3z"/></g></svg>